<svg viewBox="0 0 120 120" xmlns="http://www.w3.org/2000/svg" role="img" aria-label="Sello de calidad">
  <defs>
    <linearGradient id="seGold" x1="0" y1="0" x2="1" y2="1">
      <stop offset="0" stop-color="#e3c69d"/><stop offset="1" stop-color="#c99d61"/>
    </linearGradient>
  </defs>
  <g transform="translate(60 60)">
    <path d="M0 -54 L12 -46 L26 -48 L30 -34 L44 -28 L40 -14 L50 -2 L40 10 L44 24 L30 30 L26 44 L12 42 L0 50 L-12 42 L-26 44 L-30 30 L-44 24 L-40 10 L-50 -2 L-40 -14 L-44 -28 L-30 -34 L-26 -48 L-12 -46 Z" fill="url(#seGold)"/>
    <circle r="34" fill="#530422"/>
    <circle r="34" fill="none" stroke="#e3c69d" stroke-width="1.5" stroke-dasharray="3 3"/>
    <path d="M-14 0 l9 10 18 -20" fill="none" stroke="#e3c69d" stroke-width="4.5" stroke-linecap="round" stroke-linejoin="round"/>
    <text y="26" font-family="Georgia, serif" font-size="8.5" fill="#e3c69d" text-anchor="middle" font-weight="bold" letter-spacing="1.5">GUTI</text>
  </g>
</svg>
